<?xml version="1.0" standalone="no"?>
<!DOCTYPE svg PUBLIC "-//W3C//DTD SVG 20010904//EN"
 "http://www.w3.org/TR/2001/REC-SVG-20010904/DTD/svg10.dtd">
<svg version="1.0" xmlns="http://www.w3.org/2000/svg"
 width="225.000000pt" height="225.000000pt" viewBox="0 0 225.000000 225.000000"
 preserveAspectRatio="xMidYMid meet">

<g transform="translate(0.000000,225.000000) scale(0.100000,-0.100000)"
fill="#000000" stroke="none">
<path d="M995 2240 c-163 -19 -365 -95 -507 -191 -159 -108 -320 -304 -394
-480 -97 -230 -116 -485 -55 -726 132 -516 616 -871 1145 -840 522 30 938 393
1048 912 17 81 16 323 -1 410 -30 152 -95 308 -183 439 -54 79 -206 231 -287
286 -224 151 -501 219 -766 190z m41 -309 c16 -6 61 -19 100 -31 l72 -20 -24
-83 c-13 -45 -20 -85 -16 -88 6 -6 121 -39 134 -39 3 0 16 37 28 83 13 45 24
83 24 84 2 2 199 -56 202 -60 2 -2 -8 -43 -21 -92 -14 -49 -24 -90 -22 -91 1
-1 17 -9 35 -18 50 -26 111 -85 134 -130 38 -75 9 -236 -55 -304 -27 -29 -89
-62 -117 -62 -29 0 -25 -11 14 -42 52 -42 90 -127 89 -202 -2 -119 -68 -239
-158 -285 -43 -22 -63 -26 -147 -26 l-97 0 -17 -68 c-9 -37 -19 -69 -23 -72
-8 -4 -186 47 -196 57 -4 3 1 34 11 68 10 36 13 65 8 69 -14 14 -124 42 -134
36 -6 -3 -10 -11 -10 -17 0 -5 -7 -34 -15 -63 l-16 -53 -67 19 c-37 11 -84 24
-104 29 l-36 10 19 68 c10 37 19 70 19 73 0 3 -26 12 -59 19 -87 18 -88 19
-72 82 36 139 40 150 64 142 12 -4 33 -8 46 -8 23 -1 28 11 111 309 48 171 90
320 94 331 6 19 1 23 -39 33 -25 6 -45 14 -45 17 0 8 51 198 54 201 1 2 34 -6
72 -17 38 -11 72 -20 75 -20 4 0 9 14 13 30 7 40 37 140 40 140 2 0 16 -4 32
-9z"/>
<path d="M1156 1463 c-25 -84 -56 -206 -54 -208 2 -2 32 -11 68 -20 84 -22
113 -12 140 47 42 92 17 157 -67 177 -27 7 -56 14 -65 17 -10 3 -18 -2 -22
-13z"/>
<path d="M1045 1058 c-3 -7 -20 -65 -38 -130 l-34 -116 77 -22 c90 -26 126
-22 162 18 37 40 48 65 48 116 0 65 -33 100 -119 126 -80 23 -90 24 -96 8z"/>
</g>
</svg>
